<svg xmlns="http://www.w3.org/2000/svg" viewBox="0 0 1600 900" role="img" aria-labelledby="title desc">
  <title id="title">Colour Cafe design studio</title>
  <desc id="desc">A boutique design studio scene with material boards, colour swatches, coffee and consultation table.</desc>
  <defs>
    <linearGradient id="bg" x1="0" x2="1" y1="0" y2="1">
      <stop offset="0" stop-color="#fff7ec"/>
      <stop offset="1" stop-color="#dcc6ae"/>
    </linearGradient>
    <linearGradient id="table" x1="0" x2="1">
      <stop offset="0" stop-color="#8b674b"/>
      <stop offset="1" stop-color="#c49a70"/>
    </linearGradient>
  </defs>
  <rect width="1600" height="900" fill="url(#bg)"/>
  <rect x="0" y="0" width="1600" height="210" fill="#3a2e28" opacity=".88"/>
  <g stroke="#f6ead7" stroke-width="10" opacity=".7">
    <line x1="120" y1="92" x2="520" y2="92"/>
    <line x1="610" y1="92" x2="1040" y2="92"/>
    <line x1="1130" y1="92" x2="1490" y2="92"/>
  </g>
  <rect x="160" y="255" width="360" height="430" rx="18" fill="#fffaf2" stroke="#d8c7b6" stroke-width="4"/>
  <rect x="205" y="310" width="270" height="58" rx="12" fill="#e8ddd4"/>
  <rect x="205" y="392" width="120" height="120" rx="10" fill="#c4654a"/>
  <rect x="355" y="392" width="120" height="120" rx="10" fill="#7e9b72"/>
  <rect x="205" y="542" width="120" height="86" rx="10" fill="#d4a745"/>
  <rect x="355" y="542" width="120" height="86" rx="10" fill="#6f665d"/>
  <rect x="620" y="540" width="640" height="155" rx="18" fill="url(#table)"/>
  <rect x="680" y="455" width="250" height="150" rx="12" fill="#fffaf2" transform="rotate(-5 805 530)"/>
  <rect x="965" y="455" width="250" height="150" rx="12" fill="#f3e2cf" transform="rotate(7 1090 530)"/>
  <circle cx="780" cy="520" r="42" fill="#f5ede3" stroke="#8b674b" stroke-width="10"/>
  <circle cx="780" cy="520" r="18" fill="#6f4d37"/>
  <g>
    <rect x="1330" y="275" width="110" height="360" rx="12" fill="#fffaf2" stroke="#d8c7b6" stroke-width="4"/>
    <rect x="1350" y="300" width="70" height="60" rx="8" fill="#f4eadb"/>
    <rect x="1350" y="380" width="70" height="60" rx="8" fill="#d8c5aa"/>
    <rect x="1350" y="460" width="70" height="60" rx="8" fill="#a86145"/>
    <rect x="1350" y="540" width="70" height="60" rx="8" fill="#68775d"/>
  </g>
  <path d="M710 760c180-48 340-48 520 0" fill="none" stroke="#3a2e28" stroke-width="18" opacity=".22"/>
  <text x="620" y="335" fill="#3a2e28" font-family="Georgia,serif" font-size="82">Colour Cafe</text>
  <text x="625" y="395" fill="#7a6e62" font-family="Arial,sans-serif" font-size="28" letter-spacing="5">COFFEE  MATERIALS  CONSULTATION</text>
</svg>
